<?xml version="1.0" standalone="no"?>
<!DOCTYPE svg PUBLIC "-//W3C//DTD SVG 20010904//EN"
 "http://www.w3.org/TR/2001/REC-SVG-20010904/DTD/svg10.dtd">
<svg version="1.0" xmlns="http://www.w3.org/2000/svg"
 width="477.000000pt" height="477.000000pt" viewBox="0 0 477.000000 477.000000"
 preserveAspectRatio="xMidYMid meet">
<metadata>
Created by potrace 1.14, written by Peter Selinger 2001-2017
</metadata>
<g transform="translate(0.000000,477.000000) scale(0.100000,-0.100000)"
fill="#000000" stroke="none">
<path d="M533 4718 c-118 -17 -243 -87 -333 -184 -56 -62 -121 -188 -141 -274
-10 -44 -13 -422 -12 -1850 l1 -1795 24 -80 c71 -239 260 -415 493 -459 93
-18 3610 -15 3685 3 238 57 436 262 484 503 14 68 16 286 16 1870 0 1971 3
1853 -61 1983 -60 123 -178 225 -308 266 l-66 21 -1866 2 c-1026 0 -1889 -2
-1916 -6z"/>
</g>
</svg>
